<svg id="Layer_1" data-name="Layer 1" xmlns="http://www.w3.org/2000/svg" viewBox="0 0 1105.99 170.88"><path d="M6642.23,7316.93h46.39l16.71,93.38,24.44-93.38H6776l24.51,93.26,16.72-93.26h46.16l-34.85,166.81h-47.9l-27.72-105-27.62,105h-47.9Z" transform="translate(-6642.23 -7316.93)"/><path d="M6912.66,7402l-41.94-4.66q2.37-11.61,6.85-18.27a38.48,38.48,0,0,1,12.88-11.55q6-3.53,16.61-5.46a127,127,0,0,1,22.86-1.93q19.72,0,31.7,2.33a39.9,39.9,0,0,1,19.95,9.73q5.61,5.12,8.84,14.51a54.89,54.89,0,0,1,3.23,17.92V7458a68,68,0,0,0,1,13.37,61.84,61.84,0,0,0,4.47,12.35H6958a45.4,45.4,0,0,1-3.23-7.11,54,54,0,0,1-1.51-7.69q-8.62,8.78-17.15,12.52-11.64,5-27.06,5-20.49,0-31.11-10a32.57,32.57,0,0,1-10.62-24.69q0-13.76,7.65-22.64t28.26-13.2q24.69-5.23,32-7.34a142.53,142.53,0,0,0,15.53-5.52c0-5.68-1.12-9.67-3.34-11.94s-6.15-3.42-11.76-3.42q-10.79,0-16.17,3.65Q6915.24,7394.19,6912.66,7402Zm38.07,24.35a196.34,196.34,0,0,1-18.87,6q-13.38,3.75-16.93,7.4a12.27,12.27,0,0,0-.05,17.46q3.6,3.48,10.62,3.47a26.26,26.26,0,0,0,13.64-3.75,22.28,22.28,0,0,0,8.95-9.16q2.64-5.4,2.64-14.05Z" transform="translate(-6642.23 -7316.93)"/><path d="M7021.46,7316.93h44v166.81h-44Z" transform="translate(-6642.23 -7316.93)"/><path d="M7086.49,7316.93h44.86V7403l32.78-40.13h54l-41.08,42.33,43.46,78.51h-49.45l-23.2-48.44-16.53,17v31.41h-44.86Z" transform="translate(-6642.23 -7316.93)"/><path d="M7221.59,7316.94v41.18h49.82v125.62h48.85V7358.12h49v-41.18Z" transform="translate(-6642.23 -7316.93)"/><path d="M7496,7415.83v67.91h-44.1v-57.56q0-11.39-4-16.1t-11.21-4.72a15.61,15.61,0,0,0-12.94,6.37q-5,6.38-5,22.87v49.14h-43.89v-166.8h43.89v70.33q9-9.8,17.79-14t20.92-4.21q17.89,0,28.19,11.49T7496,7415.83Z" transform="translate(-6642.23 -7316.93)"/><path d="M7604.76,7369.45a31,31,0,0,0-12.93-1.58,32,32,0,0,0-15.87,6,34.69,34.69,0,0,0-12.23,17.69v-19.8h-41.1v111.95h44.11v-31.62a150,150,0,0,1,1.7-24.41c1.12-7.31,2.33-11.37,5.09-15.19,1.58-2.17,4.5-6.07,9.55-7.05a13.36,13.36,0,0,1,8,1l21.4-33A30.83,30.83,0,0,0,7604.76,7369.45Z" transform="translate(-6642.23 -7316.93)"/><path d="M7748.22,7316.94v121.91c0,27-20.26,49-45.25,49h-30.59c-25,0-45.25-21.92-45.25-49v-37.57H7610l39.89-38.48,39.89,38.48h-18.56V7439c0,9.83,7.36,17.8,16.45,17.8a15.81,15.81,0,0,0,11.63-5.21,18.5,18.5,0,0,0,4.81-12.59v-80.9H7424.48v-41.18Z" transform="translate(-6642.23 -7316.93)"/></svg>