<svg width="157" height="93" viewBox="0 0 157 93" fill="none" xmlns="http://www.w3.org/2000/svg">
<rect width="157" height="93" rx="10" fill="#C4C4C4"/>
<path d="M25.6045 48.4854V56H21.21V34.6719H29.5303C31.1318 34.6719 32.5381 34.9648 33.749 35.5508C34.9697 36.1367 35.9072 36.9717 36.5615 38.0557C37.2158 39.1299 37.543 40.3555 37.543 41.7324C37.543 43.8223 36.8252 45.4727 35.3896 46.6836C33.9639 47.8848 31.9863 48.4854 29.457 48.4854H25.6045ZM25.6045 44.9258H29.5303C30.6924 44.9258 31.5762 44.6523 32.1816 44.1055C32.7969 43.5586 33.1045 42.7773 33.1045 41.7617C33.1045 40.7168 32.7969 39.8721 32.1816 39.2275C31.5664 38.583 30.7168 38.251 29.6328 38.2314H25.6045V44.9258ZM49.2031 44.1201C48.627 44.042 48.1191 44.0029 47.6797 44.0029C46.0781 44.0029 45.0283 44.5449 44.5303 45.6289V56H40.2969V40.1504H44.2959L44.4131 42.04C45.2627 40.585 46.4395 39.8574 47.9434 39.8574C48.4121 39.8574 48.8516 39.9209 49.2617 40.0479L49.2031 44.1201ZM58.2559 56.293C55.9316 56.293 54.0371 55.5801 52.5723 54.1543C51.1172 52.7285 50.3896 50.8291 50.3896 48.4561V48.0459C50.3896 46.4541 50.6973 45.0332 51.3125 43.7832C51.9277 42.5234 52.7969 41.5566 53.9199 40.8828C55.0527 40.1992 56.3418 39.8574 57.7871 39.8574C59.9551 39.8574 61.6592 40.541 62.8994 41.9082C64.1494 43.2754 64.7744 45.2139 64.7744 47.7236V49.4521H54.6816C54.8184 50.4873 55.2285 51.3174 55.9121 51.9424C56.6055 52.5674 57.4795 52.8799 58.5342 52.8799C60.165 52.8799 61.4395 52.2891 62.3574 51.1074L64.4375 53.4365C63.8027 54.335 62.9434 55.0381 61.8594 55.5459C60.7754 56.0439 59.5742 56.293 58.2559 56.293ZM57.7725 43.2852C56.9326 43.2852 56.249 43.5684 55.7217 44.1348C55.2041 44.7012 54.8721 45.5117 54.7256 46.5664H60.6143V46.2295C60.5947 45.292 60.3408 44.5693 59.8525 44.0615C59.3643 43.5439 58.6709 43.2852 57.7725 43.2852ZM72.9189 50.8291L75.8633 40.1504H80.2871L74.9404 56H70.8975L65.5508 40.1504H69.9746L72.9189 50.8291ZM86.6299 56H82.3818V40.1504H86.6299V56ZM82.1328 36.0488C82.1328 35.4141 82.3428 34.8916 82.7627 34.4814C83.1924 34.0713 83.7734 33.8662 84.5059 33.8662C85.2285 33.8662 85.8047 34.0713 86.2344 34.4814C86.6641 34.8916 86.8789 35.4141 86.8789 36.0488C86.8789 36.6934 86.6592 37.2207 86.2197 37.6309C85.79 38.041 85.2188 38.2461 84.5059 38.2461C83.793 38.2461 83.2168 38.041 82.7773 37.6309C82.3477 37.2207 82.1328 36.6934 82.1328 36.0488ZM89.4717 47.9287C89.4717 46.3564 89.7744 44.9551 90.3799 43.7246C90.9854 42.4941 91.8545 41.542 92.9873 40.8682C94.1299 40.1943 95.4531 39.8574 96.957 39.8574C99.0957 39.8574 100.839 40.5117 102.187 41.8203C103.544 43.1289 104.301 44.9062 104.457 47.1523L104.486 48.2363C104.486 50.668 103.808 52.6211 102.45 54.0957C101.093 55.5605 99.2715 56.293 96.9863 56.293C94.7012 56.293 92.875 55.5605 91.5078 54.0957C90.1504 52.6309 89.4717 50.6387 89.4717 48.1191V47.9287ZM93.7051 48.2363C93.7051 49.7402 93.9883 50.8926 94.5547 51.6934C95.1211 52.4844 95.9316 52.8799 96.9863 52.8799C98.0117 52.8799 98.8125 52.4893 99.3887 51.708C99.9648 50.917 100.253 49.6572 100.253 47.9287C100.253 46.4541 99.9648 45.3115 99.3887 44.501C98.8125 43.6904 98.002 43.2852 96.957 43.2852C95.9219 43.2852 95.1211 43.6904 94.5547 44.501C93.9883 45.3018 93.7051 46.5469 93.7051 48.2363ZM116.586 54.3887C115.541 55.6582 114.096 56.293 112.25 56.293C110.551 56.293 109.252 55.8047 108.354 54.8281C107.465 53.8516 107.011 52.4209 106.991 50.5361V40.1504H111.225V50.3896C111.225 52.04 111.977 52.8652 113.48 52.8652C114.916 52.8652 115.902 52.3672 116.439 51.3711V40.1504H120.688V56H116.703L116.586 54.3887ZM132.465 51.6201C132.465 51.1025 132.206 50.6973 131.688 50.4043C131.181 50.1016 130.36 49.833 129.228 49.5986C125.458 48.8076 123.573 47.2061 123.573 44.7939C123.573 43.3877 124.154 42.2158 125.316 41.2783C126.488 40.3311 128.017 39.8574 129.901 39.8574C131.913 39.8574 133.52 40.3311 134.721 41.2783C135.932 42.2256 136.537 43.4561 136.537 44.9697H132.304C132.304 44.3643 132.108 43.8662 131.718 43.4756C131.327 43.0752 130.717 42.875 129.887 42.875C129.174 42.875 128.622 43.0361 128.231 43.3584C127.841 43.6807 127.646 44.0908 127.646 44.5889C127.646 45.0576 127.865 45.4385 128.305 45.7314C128.754 46.0146 129.506 46.2637 130.561 46.4785C131.615 46.6836 132.504 46.918 133.227 47.1816C135.463 48.002 136.581 49.4229 136.581 51.4443C136.581 52.8896 135.961 54.0615 134.721 54.96C133.48 55.8486 131.879 56.293 129.916 56.293C128.588 56.293 127.406 56.0586 126.371 55.5898C125.346 55.1113 124.54 54.4619 123.954 53.6416C123.368 52.8115 123.075 51.918 123.075 50.9609H127.089C127.128 51.7129 127.406 52.2891 127.924 52.6895C128.441 53.0898 129.135 53.29 130.004 53.29C130.814 53.29 131.425 53.1387 131.835 52.8359C132.255 52.5234 132.465 52.1182 132.465 51.6201Z" fill="black"/>
</svg>
