<svg width="235" height="47" viewBox="0 0 235 47" fill="none" xmlns="http://www.w3.org/2000/svg">
<path d="M23.5 0L28.7761 16.2381H45.8498L32.0369 26.2738L37.313 42.5119L23.5 32.4762L9.68705 42.5119L14.9631 26.2738L1.15017 16.2381H18.2239L23.5 0Z" fill="#FBD87D"/>
<path d="M70.5 0L75.7761 16.2381H92.8498L79.0369 26.2738L84.313 42.5119L70.5 32.4762L56.687 42.5119L61.9631 26.2738L48.1502 16.2381H65.2239L70.5 0Z" fill="#C4C4C4"/>
<path d="M117.5 0L122.776 16.2381H139.85L126.037 26.2738L131.313 42.5119L117.5 32.4762L103.687 42.5119L108.963 26.2738L95.1502 16.2381H112.224L117.5 0Z" fill="#C4C4C4"/>
<path d="M164.5 0L169.776 16.2381H186.85L173.037 26.2738L178.313 42.5119L164.5 32.4762L150.687 42.5119L155.963 26.2738L142.15 16.2381H159.224L164.5 0Z" fill="#C4C4C4"/>
<path d="M211.5 0L216.776 16.2381H233.85L220.037 26.2738L225.313 42.5119L211.5 32.4762L197.687 42.5119L202.963 26.2738L189.15 16.2381H206.224L211.5 0Z" fill="#C4C4C4"/>
</svg>
