<svg width="157" height="93" viewBox="0 0 157 93" fill="none" xmlns="http://www.w3.org/2000/svg">
<rect width="157" height="93" rx="10" fill="#C4C4C4"/>
<path d="M66.3418 56H61.9473L53.3926 41.9668V56H48.998V34.6719H53.3926L61.9619 48.7344V34.6719H66.3418V56ZM77.1963 56.293C74.8721 56.293 72.9775 55.5801 71.5127 54.1543C70.0576 52.7285 69.3301 50.8291 69.3301 48.4561V48.0459C69.3301 46.4541 69.6377 45.0332 70.2529 43.7832C70.8682 42.5234 71.7373 41.5566 72.8604 40.8828C73.9932 40.1992 75.2822 39.8574 76.7275 39.8574C78.8955 39.8574 80.5996 40.541 81.8398 41.9082C83.0898 43.2754 83.7148 45.2139 83.7148 47.7236V49.4521H73.6221C73.7588 50.4873 74.1689 51.3174 74.8525 51.9424C75.5459 52.5674 76.4199 52.8799 77.4746 52.8799C79.1055 52.8799 80.3799 52.2891 81.2979 51.1074L83.3779 53.4365C82.7432 54.335 81.8838 55.0381 80.7998 55.5459C79.7158 56.0439 78.5146 56.293 77.1963 56.293ZM76.7129 43.2852C75.873 43.2852 75.1895 43.5684 74.6621 44.1348C74.1445 44.7012 73.8125 45.5117 73.666 46.5664H79.5547V46.2295C79.5352 45.292 79.2812 44.5693 78.793 44.0615C78.3047 43.5439 77.6113 43.2852 76.7129 43.2852ZM92.167 44.8818L94.833 40.1504H99.3594L94.8477 47.9141L99.5498 56H95.0088L92.1816 51.0195L89.3691 56H84.8135L89.5156 47.9141L85.0186 40.1504H89.5596L92.167 44.8818ZM106.464 36.2539V40.1504H109.174V43.2559H106.464V51.166C106.464 51.752 106.576 52.1719 106.801 52.4258C107.025 52.6797 107.455 52.8066 108.09 52.8066C108.559 52.8066 108.974 52.7725 109.335 52.7041V55.9121C108.505 56.166 107.65 56.293 106.771 56.293C103.803 56.293 102.289 54.7939 102.23 51.7959V43.2559H99.916V40.1504H102.23V36.2539H106.464Z" fill="black"/>
</svg>
